<svg xmlns="http://www.w3.org/2000/svg" width="38" height="38" viewBox="0 0 38 38" fill="none">
  <path d="M31.6667 8.16927H26.6476L23.7501 5.10156H14.2501L11.3526 8.16927H6.33341C4.59175 8.16927 3.16675 9.54974 3.16675 11.237V29.6432C3.16675 31.3305 4.59175 32.7109 6.33341 32.7109H31.6667C33.4084 32.7109 34.8334 31.3305 34.8334 29.6432V11.237C34.8334 9.54974 33.4084 8.16927 31.6667 8.16927ZM31.6667 29.6432H6.33341V11.237H12.7459L15.6434 8.16927H22.3567L25.2542 11.237H31.6667V29.6432ZM19.0001 12.7708C14.6301 12.7708 11.0834 16.2067 11.0834 20.4401C11.0834 24.6735 14.6301 28.1094 19.0001 28.1094C23.3701 28.1094 26.9167 24.6735 26.9167 20.4401C26.9167 16.2067 23.3701 12.7708 19.0001 12.7708ZM19.0001 25.0417C16.3876 25.0417 14.2501 22.971 14.2501 20.4401C14.2501 17.9092 16.3876 15.8385 19.0001 15.8385C21.6126 15.8385 23.7501 17.9092 23.7501 20.4401C23.7501 22.971 21.6126 25.0417 19.0001 25.0417Z" fill="#A6633C"/>
</svg>