<svg xmlns="http://www.w3.org/2000/svg" width="38" height="41" viewBox="0 0 38 41" fill="none">
  <path d="M12.3252 20.8532L12.3351 22.754L17.809 13.1185C18.5213 11.8648 20.1502 11.4161 21.4039 12.1284C22.6576 12.8406 23.1062 14.4695 22.394 15.7232L20.8067 18.5171C21.1185 18.5521 21.3896 18.6587 21.6762 18.8215C22.5717 19.3303 23.0748 20.2794 23.0057 21.2351C23.4298 21.2392 23.8287 21.371 24.1869 21.5745C25.1898 22.1443 25.6987 23.3336 25.4765 24.3919C25.8241 24.4473 26.1872 24.5588 26.5096 24.7419C27.62 25.3727 28.0116 26.685 27.5811 28.1934C27.5607 28.2293 27.5404 28.2651 27.52 28.3009C27.3727 28.6436 23.5495 36.3741 20.0053 39.1934C19.735 39.4189 19.3467 39.4353 19.0602 39.2725C18.9527 39.2114 18.9014 39.1349 18.8143 39.038C18.5017 38.6709 18.5871 38.1035 18.9339 37.8267C22.0141 35.4071 25.5427 28.3621 25.9138 27.6253C26.0253 27.2623 26.136 26.567 25.5987 26.2618C25.1689 26.0176 24.6072 26.1723 24.363 26.6022L23.5083 28.1066C23.2641 28.5364 22.7586 28.6756 22.3288 28.4315C21.8989 28.1873 21.7597 27.6817 22.0039 27.2519L22.8586 25.7475C22.8993 25.6758 22.9603 25.5684 23.001 25.4967C23.0214 25.4609 23.0621 25.3893 23.0824 25.3535L23.6522 24.3505C23.8964 23.9207 23.7417 23.359 23.3118 23.1148C22.882 22.8706 22.3203 23.0253 22.0761 23.4551L21.6284 24.2432L20.4278 26.3565C20.1836 26.7864 19.6781 26.9256 19.2483 26.6814C18.8184 26.4372 18.6792 25.9317 18.9234 25.5019L20.124 23.3885L20.5717 22.6005L21.1415 21.5975C21.3857 21.1677 21.231 20.606 20.8011 20.3618C20.3713 20.1176 19.8096 20.2723 19.5654 20.7021L17.4898 24.3558C17.2456 24.7856 16.7401 24.9248 16.3102 24.6806C15.8804 24.4364 15.7412 23.9309 15.9853 23.5011L20.8895 14.8685C21.1337 14.4387 20.979 13.877 20.5492 13.6328C20.1194 13.3886 19.5577 13.5433 19.3135 13.9731L12.2522 26.4026C12.0488 26.7608 11.671 26.9252 11.2721 26.7934C10.9091 26.6819 10.6323 26.3351 10.616 25.9468L10.5774 20.7604C10.592 20.4845 10.5098 20.2956 10.3356 20.1019C10.1768 19.9643 9.97739 19.8984 9.79341 19.8886C9.46127 19.8895 9.13568 20.4626 8.96884 21.1733C8.93386 21.4851 7.69445 28.5039 8.68456 32.0988C8.80832 32.5481 8.54378 33.0138 8.07408 33.1734C7.8494 33.2352 7.6296 33.2051 7.41468 33.083C7.23558 32.9813 7.06137 32.7876 6.99948 32.5629C5.88562 28.5187 7.21618 21.1726 7.25116 20.8608C7.57425 19.2913 8.53234 18.272 9.68178 18.1669C10.3664 18.1294 11.0364 18.3679 11.5281 18.8368C12.0304 19.4538 12.3284 20.0969 12.3252 20.8532ZM22.0794 10.5222C22.5093 10.7664 23.0148 10.6271 23.259 10.1973L25.5381 6.1855C25.7823 5.75566 25.6431 5.25014 25.2133 5.00594C24.7834 4.76175 24.2779 4.90099 24.0337 5.33083L21.7546 9.34263C21.5307 9.73665 21.6496 10.278 22.0794 10.5222ZM24.132 15.9999C23.8878 16.4297 24.027 16.9352 24.4569 17.1794L28.4687 19.4585C28.8985 19.7027 29.4041 19.5635 29.6482 19.1337C29.8924 18.7038 29.7532 18.1983 29.3234 17.9541L25.3116 15.675C24.8817 15.4308 24.3559 15.6058 24.132 15.9999ZM24.8352 13.1775C25.0143 13.2792 25.2699 13.3297 25.4946 13.2678L29.9319 12.0456C30.3813 11.9219 30.6458 11.4562 30.5424 10.9711C30.4187 10.5217 29.9172 10.2368 29.4678 10.3606L25.0305 11.5827C24.5811 11.7065 24.3166 12.1722 24.42 12.6573C24.4819 12.882 24.6561 13.0757 24.8352 13.1775ZM11.4356 10.4927L15.4474 12.7718C15.8773 13.016 16.3828 12.8768 16.627 12.4469C16.8712 12.0171 16.732 11.5116 16.3021 11.2674L12.2903 8.98825C11.8605 8.74406 11.355 8.8833 11.1108 9.31313C10.8666 9.74297 11.0058 10.2485 11.4356 10.4927ZM17.7437 9.48044C17.8056 9.70512 17.944 9.87851 18.1589 10.0006C18.3738 10.1227 18.5936 10.1528 18.8183 10.0909C19.2677 9.96716 19.5322 9.5015 19.4288 9.01633L18.2066 4.57897C18.0829 4.12962 17.5814 3.84473 17.132 3.96849C16.6827 4.09225 16.4181 4.55791 16.5216 5.04308L17.7437 9.48044Z" fill="#A6633C" stroke="#A6633C"/>
</svg>