<svg xmlns="http://www.w3.org/2000/svg" width="31" height="31" viewBox="0 0 31 31" fill="none">
  <path d="M15.5001 7.74999C16.9209 7.74999 18.0834 8.91249 18.0834 10.3333C18.0834 11.7542 16.9209 12.9167 15.5001 12.9167C14.0792 12.9167 12.9167 11.7542 12.9167 10.3333C12.9167 8.91249 14.0792 7.74999 15.5001 7.74999ZM15.5001 20.6667C18.9876 20.6667 22.9917 22.3329 23.2501 23.25H7.75008C8.04716 22.32 12.0255 20.6667 15.5001 20.6667ZM15.5001 5.16666C12.6455 5.16666 10.3334 7.47874 10.3334 10.3333C10.3334 13.1879 12.6455 15.5 15.5001 15.5C18.3547 15.5 20.6667 13.1879 20.6667 10.3333C20.6667 7.47874 18.3547 5.16666 15.5001 5.16666ZM15.5001 18.0833C12.0513 18.0833 5.16675 19.8142 5.16675 23.25V25.8333H25.8334V23.25C25.8334 19.8142 18.9488 18.0833 15.5001 18.0833Z" fill="#D9AE89"/>
</svg>