<svg xmlns="http://www.w3.org/2000/svg" width="36" height="36" viewBox="0 0 36 36" fill="none">
  <path d="M26.9998 19.5L19.4998 19.5L19.4998 27C19.4998 27.825 18.8248 28.5 17.9998 28.5C17.1748 28.5 16.4998 27.825 16.4998 27L16.4998 19.5L8.99976 19.5C8.17476 19.5 7.49976 18.825 7.49976 18C7.49976 17.175 8.17476 16.5 8.99976 16.5L16.4998 16.5L16.4998 9C16.4998 8.175 17.1748 7.5 17.9998 7.5C18.8248 7.5 19.4998 8.175 19.4998 9L19.4998 16.5L26.9998 16.5C27.8248 16.5 28.4998 17.175 28.4998 18C28.4998 18.825 27.8248 19.5 26.9998 19.5Z" fill="#A6633C"/>
</svg>